<svg opacity="0.1" xmlns="http://www.w3.org/2000/svg" version="1.1" xmlns:xlink="http://www.w3.org/1999/xlink" xmlns:svgjs="http://svgjs.dev/svgjs" viewBox="0 0 800 800"><defs><filter id="llleaves-blur-2" x="-100%" y="-100%" width="400%" height="400%"><feGaussianBlur in="SourceGraphic" stdDeviation="2"></feGaussianBlur></filter><filter id="llleaves-blur-3" x="-100%" y="-100%" width="400%" height="400%"><feGaussianBlur in="SourceGraphic" stdDeviation="4"></feGaussianBlur></filter><filter id="llleaves-blur-4" x="-100%" y="-100%" width="400%" height="400%"><feGaussianBlur in="SourceGraphic" stdDeviation="12"></feGaussianBlur></filter></defs><g fill="#341065"><path d="M283 469H333C361 469 383 491 383 519H333C305 519 283 497 283 469Z " transform="matrix(-0.3168626784001315,0.12802083206202428,-0.12802083206202428,-0.3168626784001315,501.7575629458837,607.8992260530108)" filter="url(#llleaves-blur-2)" opacity="0.52"></path><path d="M422 729H472C500 729 522 751 522 779H472C444 779 422 757 422 729Z " transform="matrix(-0.3405878078630526,0.09126022806879143,-0.09126022806879143,-0.3405878078630526,701.5676572752296,967.7283794802721)" filter="url(#llleaves-blur-2)" opacity="0.54"></path><path d="M567 665H617C645 665 667 687 667 715H617C589 715 567 693 567 665Z " transform="matrix(0.07298538068043153,-0.5193179678702279,0.5193179678702279,0.07298538068043153,213.63862228971652,960.0592735064328)" opacity="0.81"></path><path d="M515 40H565C593 40 615 62 615 90H565C537 90 515 68 515 40Z " transform="matrix(-0.317819843608319,-0.3069150553834935,0.3069150553834935,-0.317819843608319,724.6187330387731,259.06529612621455)" opacity="0.68"></path><path d="M66 733H116C144 733 166 755 166 783H116C88 783 66 761 66 733Z " transform="matrix(-0.38215232142324995,-0.1315855967487727,0.1315855967487727,-0.38215232142324995,60.587786949527285,1062.935388861681)" opacity="0.62"></path><path d="M628 547H678C706 547 728 569 728 597H678C650 597 628 575 628 547Z " transform="matrix(-0.3177750131796503,-0.30687176314175835,0.30687176314175835,-0.3177750131796503,717.9208104187171,961.8263629488722)" opacity="0.68"></path><path d="M-11 717H39C67 717 89 739 89 767H39C11 767 -11 745 -11 717Z " transform="matrix(-0.2310521755403443,0.20804031330034053,-0.20804031330034053,-0.2310521755403443,202.3769473149261,905.3271420322221)" filter="url(#llleaves-blur-2)" opacity="0.48"></path><path d="M109 20H159C187 20 209 42 209 70H159C131 70 109 48 109 20Z " transform="matrix(-0.11086057550216728,-0.48018990819689406,0.48018990819689406,-0.11086057550216728,155.01828563598437,126.33892130090369)" opacity="0.76"></path><path d="M235 730H285C313 730 335 752 335 780H285C257 780 235 758 235 730Z " transform="matrix(-0.38530331651769556,-0.0818987481590575,0.0818987481590575,-0.38530331651769556,332.97789034745483,1069.2451471961915)" filter="url(#llleaves-blur-2)" opacity="0.60"></path><path d="M327 567H377C405 567 427 589 427 617H377C349 617 327 595 327 567Z " transform="matrix(-0.13637654499061416,0.24602979986198986,-0.24602979986198986,-0.13637654499061416,574.0635989797595,579.9816800864734)" filter="url(#llleaves-blur-3)" opacity="0.43"></path><path d="M232 14H282C310 14 332 36 332 64H282C254 64 232 42 232 14Z " transform="matrix(-0.2637716420209082,0.18469489210899312,-0.18469489210899312,-0.2637716420209082,363.58670384214685,-2.796865535920638)" filter="url(#llleaves-blur-2)" opacity="0.49"></path><path d="M86 128H136C164 128 186 150 186 178H136C108 178 86 156 86 128Z " transform="matrix(-0.35104238731506254,-0.24580252582913922,0.24580252582913922,-0.35104238731506254,146.1339782229902,240.1386287719675)" opacity="0.66"></path><path d="M532 131H582C610 131 632 153 632 181H582C554 181 532 159 532 131Z " transform="matrix(-0.11094716369340676,-0.4805649628582458,0.4805649628582458,-0.11094716369340676,571.6031150636763,452.99656591967045)" opacity="0.76"></path><path d="M359 396H409C437 396 459 418 459 446H409C381 446 359 424 359 396Z " transform="matrix(-0.10137929372261642,0.2509225571014771,-0.2509225571014771,-0.10137929372261642,556.102527672272,361.05335680271736)" filter="url(#llleaves-blur-3)" opacity="0.41"></path><path d="M708 504H758C786 504 808 526 808 554H758C730 554 708 532 708 504Z " transform="matrix(-0.05801220657949322,0.2512784732130636,-0.2512784732130636,-0.05801220657949322,934.8995649169665,369.21937458504965)" filter="url(#llleaves-blur-3)" opacity="0.39"></path><path d="M189 182H239C267 182 289 204 289 232H239C211 232 189 210 189 182Z " transform="matrix(-0.25158873304022333,-0.38741267529914036,0.38741267529914036,-0.25158873304022333,218.93528340969132,351.6704971358208)" opacity="0.71"></path><path d="M-4 147H46C74 147 96 169 96 197H46C18 197 -4 175 -4 147Z " transform="matrix(-0.14676179650901583,0.24425264672285693,-0.24425264672285693,-0.14676179650901583,94.76249787574612,186.0074072502993)" filter="url(#llleaves-blur-3)" opacity="0.44"></path><path d="M535 413H585C613 413 635 435 635 463H585C557 463 535 441 535 413Z " transform="matrix(0.17623156566245657,-0.5118136299867481,0.5118136299867481,0.17623156566245657,257.73016415326725,660.2215477820916)" opacity="0.83"></path><path d="M-11 606H39C67 606 89 628 89 656H39C11 656 -11 634 -11 606Z " transform="matrix(-0.2310521755403443,0.20804031330034053,-0.20804031330034053,-0.2310521755403443,179.28447253858832,768.680350547244)" filter="url(#llleaves-blur-2)" opacity="0.48"></path><path d="M461 202H511C539 202 561 224 561 252H511C483 252 461 230 461 202Z " transform="matrix(-0.3535008212291566,-0.23843931462985812,0.23843931462985812,-0.3535008212291566,637.5131952271213,429.08717619487606)" opacity="0.65"></path><path d="M176 90H226C254 90 276 112 276 140H226C198 140 176 118 176 90Z " transform="matrix(-0.3540748350941694,-0.2388264918705949,0.2388264918705949,-0.3540748350941694,278.55586616616387,209.69339319858392)" opacity="0.66"></path><path d="M659 352H709C737 352 759 374 759 402H709C681 402 659 380 659 352Z " transform="matrix(-0.3639769969393268,0.038255523917605505,-0.038255523917605505,-0.3639769969393268,981.48202334692,487.0961613885439)" filter="url(#llleaves-blur-2)" opacity="0.56"></path><path d="M376 228H426C454 228 476 250 476 278H426C398 278 376 256 376 228Z " transform="matrix(-0.1264023967967083,0.2480786718742504,-0.2480786718742504,-0.1264023967967083,542.6113250195831,179.29829217113652)" filter="url(#llleaves-blur-3)" opacity="0.43"></path><path d="M2 32H52C80 32 102 54 102 82H52C24 82 2 60 2 32Z " transform="matrix(-0.3750224580641821,4.592700528766731e-17,-4.592700528766731e-17,-0.3750224580641821,71.50116781933747,78.37628010965838)" filter="url(#llleaves-blur-2)" opacity="0.58"></path></g><g fill="none" stroke-width="3" stroke="#341065"><path d="M645 643H695C723 643 745 665 745 693H695C667 693 645 671 645 643Z " transform="matrix(-0.3827376146135484,-0.13178712935606285,0.13178712935606285,-0.3827376146135484,872.9688397465661,1015.260781464314)" opacity="0.62"></path><path d="M453 549H503C531 549 553 571 553 599H503C475 599 453 577 453 549Z " transform="matrix(-0.3535008212291566,-0.23843931462985812,0.23843931462985812,-0.3535008212291566,543.9467464807273,896.8444466443544)" opacity="0.65"></path><path d="M541 499H591C619 499 641 521 641 549H591C563 549 541 527 541 499Z " transform="matrix(0.17623156566245657,-0.5118136299867481,0.5118136299867481,0.17623156566245657,218.6568025804322,734.1365149150408)" opacity="0.83"></path><path d="M102 233H152C180 233 202 255 202 283H152C124 283 102 261 102 233Z " transform="matrix(-0.22065907569323542,-0.4149993634751274,0.4149993634751274,-0.22065907569323542,78.47034372878892,378.00994477707405)" opacity="0.72"></path><path d="M618 79H668C696 79 718 101 718 129H668C640 129 618 107 618 79Z " transform="matrix(-0.1312805212073554,0.24690275061913386,-0.24690275061913386,-0.1312805212073554,781.3732742309032,-47.27786320801647)" filter="url(#llleaves-blur-3)" opacity="0.43"></path><path d="M552 219H602C630 219 652 241 652 269H602C574 269 552 247 552 219Z " transform="matrix(0.14817560718839393,-0.5167497527337014,0.5167497527337014,0.14817560718839393,386.7113448055637,518.92850299172)" opacity="0.83"></path><path d="M313 305H363C391 305 413 327 413 355H363C335 355 313 333 313 305Z " transform="matrix(-0.18703799149303596,0.23097268385877734,-0.23097268385877734,-0.18703799149303596,507.11577658536856,307.8794529519657)" filter="url(#llleaves-blur-3)" opacity="0.45"></path><path d="M-11 482H39C67 482 89 504 89 532H39C11 532 -11 510 -11 482Z " transform="matrix(-0.2310521755403443,0.20804031330034053,-0.20804031330034053,-0.2310521755403443,153.48747368934607,616.0298807802412)" filter="url(#llleaves-blur-2)" opacity="0.48"></path><path d="M481 652H531C559 652 581 674 581 702H531C503 702 481 680 481 652Z " transform="matrix(-0.25188049078379815,-0.3878619428263928,0.3878619428263928,-0.25188049078379815,402.1660053127289,1053.477783901446)" opacity="0.71"></path><path d="M581 346H631C659 346 681 368 681 396H631C603 396 581 374 581 346Z " transform="matrix(0.07298538068043153,-0.5193179678702279,0.5193179678702279,0.07298538068043153,392.2792587107932,671.6120614936737)" opacity="0.81"></path><path d="M76 327H126C154 327 176 349 176 377H126C98 377 76 355 76 327Z " transform="matrix(-0.3475449028405804,-0.25250615230517276,0.25250615230517276,-0.3475449028405804,80.90849214649232,506.151580990336)" opacity="0.66"></path><path d="M281 211H331C359 211 381 233 381 261H331C303 261 281 239 281 211Z " transform="matrix(-0.3168626784001315,0.12802083206202428,-0.12802083206202428,-0.3168626784001315,466.0944629170813,268.40469668990096)" filter="url(#llleaves-blur-2)" opacity="0.52"></path><path d="M709 721H759C787 721 809 743 809 771H759C731 771 709 749 709 721Z " transform="matrix(-0.05801220657949322,0.2512784732130636,-0.2512784732130636,-0.05801220657949322,990.4850058107806,598.5567449395867)" filter="url(#llleaves-blur-3)" opacity="0.39"></path><path d="M626 446H676C704 446 726 468 726 496H676C648 496 626 474 626 446Z " transform="matrix(-0.3177750131796503,-0.30687176314175835,0.30687176314175835,-0.3177750131796503,746.2793084696755,828.1173430914439)" opacity="0.68"></path><path d="M272 107H322C350 107 372 129 372 157H322C294 157 272 135 272 107Z " transform="matrix(-0.31295845420987384,0.13284298233197836,-0.13284298233197836,-0.31295845420987384,440.30789592340045,130.5350756448063)" filter="url(#llleaves-blur-2)" opacity="0.52"></path><path d="M714 606H764C792 606 814 628 814 656H764C736 656 714 634 714 606Z " transform="matrix(-0.05801220657949322,0.2512784732130636,-0.2512784732130636,-0.05801220657949322,966.878042424176,475.62894881687964)" filter="url(#llleaves-blur-3)" opacity="0.39"></path><path d="M157 366H207C235 366 257 388 257 416H207C179 416 157 394 157 366Z " transform="matrix(-0.1498932344697533,-0.46132394006150973,0.46132394006150973,-0.1498932344697533,57.65023897118863,545.1023102704061)" opacity="0.75"></path><path d="M457 375H507C535 375 557 397 557 425H507C479 425 457 403 457 375Z " transform="matrix(-0.3535008212291566,-0.23843931462985812,0.23843931462985812,-0.3535008212291566,590.8491905112392,662.2890610090008)" opacity="0.65"></path></g></svg>