<svg xmlns="http://www.w3.org/2000/svg" xmlns:xlink="http://www.w3.org/1999/xlink" width="500" zoomAndPan="magnify" viewBox="0 0 375 374.999991" height="500" preserveAspectRatio="xMidYMid meet" version="1.0"><defs><filter x="0%" y="0%" width="100%" height="100%" id="27ef835ead"><feColorMatrix values="0 0 0 0 1 0 0 0 0 1 0 0 0 0 1 0 0 0 1 0" color-interpolation-filters="sRGB"/></filter><g/><clipPath id="8e0f962a23"><path d="M 204.898438 253.097656 L 219.480469 253.097656 L 219.480469 268.265625 L 204.898438 268.265625 Z M 204.898438 253.097656 " clip-rule="nonzero"/></clipPath><clipPath id="bf3f86f118"><path d="M 218.871094 263.59375 C 211.921875 268.609375 208.832031 267.839844 207.289062 266.488281 C 205.746094 265.136719 204.78125 262.050781 204.972656 260.117188 C 205.359375 257.996094 207.289062 255.488281 209.027344 254.523438 C 210.765625 253.75 214.042969 253.75 215.78125 254.714844 C 217.519531 255.875 219.253906 258.574219 219.449219 260.503906 C 219.449219 262.628906 218.289062 265.523438 216.554688 266.679688 C 215.011719 268.03125 211.730469 268.417969 209.992188 268.03125 C 208.449219 267.644531 207.097656 266.488281 206.324219 265.328125 C 205.359375 263.59375 204.972656 260.503906 205.359375 258.574219 C 205.746094 256.839844 207.097656 255.292969 208.449219 254.328125 C 209.800781 253.363281 211.730469 252.976562 213.464844 253.171875 C 215.011719 253.363281 216.941406 254.136719 217.90625 255.488281 C 219.0625 257.03125 219.449219 262.050781 219.449219 262.050781 " clip-rule="nonzero"/></clipPath><clipPath id="5aaef83f91"><path d="M 236.308594 252.738281 L 251 252.738281 L 251 267.8125 L 236.308594 267.8125 Z M 236.308594 252.738281 " clip-rule="nonzero"/></clipPath><clipPath id="ec14cb9ce3"><path d="M 236.625 258.574219 C 243.574219 252.207031 246.855469 252.976562 248.398438 254.328125 C 249.941406 255.679688 251.101562 258.574219 250.90625 260.699219 C 250.714844 262.628906 248.785156 265.328125 247.046875 266.296875 C 245.308594 267.261719 242.03125 267.261719 240.292969 266.296875 C 238.554688 265.328125 236.625 262.628906 236.433594 260.699219 C 236.238281 258.769531 237.398438 255.679688 238.941406 254.328125 C 240.484375 252.976562 243.574219 252.398438 245.503906 252.976562 C 247.433594 253.363281 249.75 255.875 250.519531 257.609375 C 251.101562 258.960938 251.101562 260.890625 250.519531 262.433594 C 250.136719 263.980469 248.785156 265.714844 247.625 266.488281 C 246.277344 267.453125 244.152344 268.03125 242.609375 267.644531 C 240.679688 267.261719 237.976562 265.328125 237.011719 263.785156 C 236.238281 262.242188 236.625 258.574219 236.625 258.574219 " clip-rule="nonzero"/></clipPath><mask id="6ad473e861"><g filter="url(#27ef835ead)"><rect x="-37.5" width="450" fill="#000000" y="-37.499999" height="449.999989" fill-opacity="0.85"/></g></mask><clipPath id="21a3437a89"><path d="M 0.308594 0.738281 L 15 0.738281 L 15 15.8125 L 0.308594 15.8125 Z M 0.308594 0.738281 " clip-rule="nonzero"/></clipPath><clipPath id="375fd603e5"><path d="M 0.625 6.574219 C 7.574219 0.207031 10.855469 0.976562 12.398438 2.328125 C 13.941406 3.679688 15.101562 6.574219 14.90625 8.699219 C 14.714844 10.628906 12.785156 13.328125 11.046875 14.296875 C 9.308594 15.261719 6.03125 15.261719 4.292969 14.296875 C 2.554688 13.328125 0.625 10.628906 0.433594 8.699219 C 0.238281 6.769531 1.398438 3.679688 2.941406 2.328125 C 4.484375 0.976562 7.574219 0.398438 9.503906 0.976562 C 11.433594 1.363281 13.75 3.875 14.519531 5.609375 C 15.101562 6.960938 15.101562 8.890625 14.519531 10.433594 C 14.136719 11.980469 12.785156 13.714844 11.625 14.488281 C 10.277344 15.453125 8.152344 16.03125 6.609375 15.644531 C 4.679688 15.261719 1.976562 13.328125 1.011719 11.785156 C 0.238281 10.242188 0.625 6.574219 0.625 6.574219 " clip-rule="nonzero"/></clipPath><clipPath id="55a98b0720"><rect x="0" width="15" y="0" height="16"/></clipPath><clipPath id="968ec7cc41"><path d="M 265.644531 252.96875 L 280.25 252.96875 L 280.25 267.929688 L 265.644531 267.929688 Z M 265.644531 252.96875 " clip-rule="nonzero"/></clipPath><clipPath id="da952c3b19"><path d="M 280.242188 259.734375 C 276.191406 267.453125 273.101562 268.03125 271.171875 267.644531 C 269.242188 267.066406 266.734375 264.945312 266.152344 263.015625 C 265.382812 261.085938 265.960938 257.804688 267.117188 256.257812 C 268.277344 254.714844 271.363281 253.363281 273.296875 253.363281 C 275.226562 253.558594 278.121094 255.101562 279.085938 256.839844 C 280.242188 258.574219 280.4375 261.664062 279.472656 263.59375 C 278.699219 265.328125 275.996094 267.261719 274.261719 267.644531 C 272.714844 268.03125 270.980469 267.839844 269.628906 267.066406 C 268.085938 266.101562 266.152344 263.398438 265.769531 261.46875 C 265.574219 259.539062 266.539062 256.453125 267.890625 255.101562 C 269.050781 253.75 270.980469 253.171875 272.523438 252.976562 C 274.066406 252.976562 276.191406 253.558594 277.539062 254.523438 C 278.699219 255.679688 280.050781 258.960938 280.050781 258.960938 " clip-rule="nonzero"/></clipPath><mask id="5152e2bf06"><g filter="url(#27ef835ead)"><rect x="-37.5" width="450" fill="#000000" y="-37.499999" height="449.999989" fill-opacity="0.85"/></g></mask><clipPath id="fe97b6fe6c"><path d="M 0.644531 0.96875 L 15.25 0.96875 L 15.25 15.929688 L 0.644531 15.929688 Z M 0.644531 0.96875 " clip-rule="nonzero"/></clipPath><clipPath id="652806e613"><path d="M 15.242188 7.734375 C 11.191406 15.453125 8.101562 16.03125 6.171875 15.644531 C 4.242188 15.066406 1.734375 12.945312 1.152344 11.015625 C 0.382812 9.085938 0.960938 5.804688 2.117188 4.257812 C 3.277344 2.714844 6.363281 1.363281 8.296875 1.363281 C 10.226562 1.558594 13.121094 3.101562 14.085938 4.839844 C 15.242188 6.574219 15.4375 9.664062 14.472656 11.59375 C 13.699219 13.328125 10.996094 15.261719 9.261719 15.644531 C 7.714844 16.03125 5.980469 15.839844 4.628906 15.066406 C 3.085938 14.101562 1.152344 11.398438 0.769531 9.46875 C 0.574219 7.539062 1.539062 4.453125 2.890625 3.101562 C 4.050781 1.75 5.980469 1.171875 7.523438 0.976562 C 9.066406 0.976562 11.191406 1.558594 12.539062 2.523438 C 13.699219 3.679688 15.050781 6.960938 15.050781 6.960938 " clip-rule="nonzero"/></clipPath><clipPath id="2a8a1e6394"><rect x="0" width="16" y="0" height="16"/></clipPath><clipPath id="d9dfa3a4fe"><path d="M 296.234375 254.570312 L 311.621094 254.570312 L 311.621094 269.484375 L 296.234375 269.484375 Z M 296.234375 254.570312 " clip-rule="nonzero"/></clipPath><clipPath id="9ec8cbdd01"><path d="M 309.578125 266.875 C 302.4375 269.574219 300.507812 269.191406 299.15625 268.03125 C 297.804688 266.875 296.261719 263.980469 296.261719 262.050781 C 296.453125 259.925781 298.191406 257.03125 299.929688 256.066406 C 301.472656 254.90625 304.753906 254.90625 306.683594 255.679688 C 308.421875 256.453125 310.351562 259.152344 310.738281 261.082031 C 310.929688 263.015625 309.964844 266.101562 308.421875 267.453125 C 307.070312 268.804688 303.789062 269.574219 301.859375 269.191406 C 300.316406 268.996094 298.964844 268.03125 298 266.875 C 297.035156 265.714844 296.261719 264.171875 296.261719 262.628906 C 296.453125 260.699219 297.613281 257.609375 299.15625 256.453125 C 300.699219 255.292969 303.980469 254.714844 305.910156 255.292969 C 307.839844 256.066406 309.964844 258.382812 310.542969 260.3125 C 311.121094 262.242188 310.351562 265.523438 309 266.875 C 307.648438 268.417969 304.367188 269.574219 302.4375 269.382812 C 300.507812 268.996094 297.804688 267.261719 297.035156 265.328125 C 296.070312 263.207031 297.035156 258.960938 298.191406 257.222656 C 299.351562 255.679688 302.050781 254.714844 303.789062 254.714844 C 305.527344 254.523438 307.457031 255.101562 308.804688 256.066406 C 309.964844 257.03125 311.316406 258.769531 311.507812 260.3125 C 311.703125 262.242188 309.578125 266.875 309.578125 266.875 " clip-rule="nonzero"/></clipPath><mask id="6ae2be9e51"><g filter="url(#27ef835ead)"><rect x="-37.5" width="450" fill="#000000" y="-37.499999" height="449.999989" fill-opacity="0.85"/></g></mask><clipPath id="54042ef30c"><path d="M 0.234375 0.570312 L 15.621094 0.570312 L 15.621094 15.484375 L 0.234375 15.484375 Z M 0.234375 0.570312 " clip-rule="nonzero"/></clipPath><clipPath id="d71984a839"><path d="M 13.578125 12.875 C 6.4375 15.574219 4.507812 15.191406 3.15625 14.03125 C 1.804688 12.875 0.261719 9.980469 0.261719 8.050781 C 0.453125 5.925781 2.191406 3.03125 3.929688 2.066406 C 5.472656 0.90625 8.753906 0.90625 10.683594 1.679688 C 12.421875 2.453125 14.351562 5.152344 14.738281 7.082031 C 14.929688 9.015625 13.964844 12.101562 12.421875 13.453125 C 11.070312 14.804688 7.789062 15.574219 5.859375 15.191406 C 4.316406 14.996094 2.964844 14.03125 2 12.875 C 1.035156 11.714844 0.261719 10.171875 0.261719 8.628906 C 0.453125 6.699219 1.613281 3.609375 3.15625 2.453125 C 4.699219 1.292969 7.980469 0.714844 9.910156 1.292969 C 11.839844 2.066406 13.964844 4.382812 14.542969 6.3125 C 15.121094 8.242188 14.351562 11.523438 13 12.875 C 11.648438 14.417969 8.367188 15.574219 6.4375 15.382812 C 4.507812 14.996094 1.804688 13.261719 1.035156 11.328125 C 0.0703125 9.207031 1.035156 4.960938 2.191406 3.222656 C 3.351562 1.679688 6.050781 0.714844 7.789062 0.714844 C 9.527344 0.523438 11.457031 1.101562 12.804688 2.066406 C 13.964844 3.03125 15.316406 4.769531 15.507812 6.3125 C 15.703125 8.242188 13.578125 12.875 13.578125 12.875 " clip-rule="nonzero"/></clipPath><clipPath id="a2e9c8601d"><rect x="0" width="16" y="0" height="16"/></clipPath><clipPath id="8ab5363210"><path d="M 325.5 253.914062 L 339.523438 253.914062 L 339.523438 268.386719 L 325.5 268.386719 Z M 325.5 253.914062 " clip-rule="nonzero"/></clipPath><clipPath id="970deee1d7"><path d="M 339.492188 258.960938 C 337.5625 266.679688 336.597656 267.261719 335.441406 267.644531 C 334.476562 268.226562 333.316406 268.609375 332.160156 268.226562 C 330.421875 268.03125 327.335938 266.488281 326.371094 264.75 C 325.402344 263.207031 325.402344 259.734375 325.984375 258.1875 C 326.371094 256.839844 327.140625 256.066406 328.105469 255.292969 C 328.878906 254.714844 330.035156 253.941406 331.195312 253.941406 C 332.929688 253.941406 337.757812 255.875 337.757812 255.875 " clip-rule="nonzero"/></clipPath><mask id="a0fabb3248"><g filter="url(#27ef835ead)"><rect x="-37.5" width="450" fill="#000000" y="-37.499999" height="449.999989" fill-opacity="0.85"/></g></mask><clipPath id="7c909fdfd2"><path d="M 0.5 0.921875 L 14.523438 0.921875 L 14.523438 15.386719 L 0.5 15.386719 Z M 0.5 0.921875 " clip-rule="nonzero"/></clipPath><clipPath id="eb2e9aa2fa"><path d="M 14.492188 5.960938 C 12.5625 13.679688 11.597656 14.261719 10.441406 14.644531 C 9.476562 15.226562 8.316406 15.609375 7.160156 15.226562 C 5.421875 15.03125 2.335938 13.488281 1.371094 11.75 C 0.402344 10.207031 0.402344 6.734375 0.984375 5.1875 C 1.371094 3.839844 2.140625 3.066406 3.105469 2.292969 C 3.878906 1.714844 5.035156 0.941406 6.195312 0.941406 C 7.929688 0.941406 12.757812 2.875 12.757812 2.875 " clip-rule="nonzero"/></clipPath><clipPath id="c03e9a73d0"><rect x="0" width="15" y="0" height="16"/></clipPath></defs><g clip-path="url(#8e0f962a23)"><g clip-path="url(#bf3f86f118)"><path fill="#dfb4ce" d="M 197.253906 245.453125 L 227.363281 245.453125 L 227.363281 275.910156 L 197.253906 275.910156 Z M 197.253906 245.453125 " fill-opacity="1" fill-rule="nonzero"/></g></g><g clip-path="url(#5aaef83f91)"><g clip-path="url(#ec14cb9ce3)"><g mask="url(#6ad473e861)"><g transform="matrix(1, 0, 0, 1, 236, 252)"><g clip-path="url(#55a98b0720)"><g clip-path="url(#21a3437a89)"><g clip-path="url(#375fd603e5)"><rect x="-318.5" width="540" fill="#9ec2dd" height="539.999987" y="-334.499998" fill-opacity="1"/></g></g></g></g></g></g></g><g clip-path="url(#968ec7cc41)"><g clip-path="url(#da952c3b19)"><g mask="url(#5152e2bf06)"><g transform="matrix(1, 0, 0, 1, 265, 252)"><g clip-path="url(#2a8a1e6394)"><g clip-path="url(#fe97b6fe6c)"><g clip-path="url(#652806e613)"><rect x="-347.5" width="540" fill="#9eddaa" height="539.999987" y="-334.499998" fill-opacity="1"/></g></g></g></g></g></g></g><g clip-path="url(#d9dfa3a4fe)"><g clip-path="url(#9ec8cbdd01)"><g mask="url(#6ae2be9e51)"><g transform="matrix(1, 0, 0, 1, 296, 254)"><g clip-path="url(#a2e9c8601d)"><g clip-path="url(#54042ef30c)"><g clip-path="url(#d71984a839)"><rect x="-378.5" width="540" fill="#e6e2ab" height="539.999987" y="-336.499998" fill-opacity="1"/></g></g></g></g></g></g></g><g clip-path="url(#8ab5363210)"><g clip-path="url(#970deee1d7)"><g mask="url(#a0fabb3248)"><g transform="matrix(1, 0, 0, 1, 325, 253)"><g clip-path="url(#c03e9a73d0)"><g clip-path="url(#7c909fdfd2)"><g clip-path="url(#eb2e9aa2fa)"><rect x="-407.5" width="540" fill="#e6c7ab" height="539.999987" y="-335.499998" fill-opacity="1"/></g></g></g></g></g></g></g><g fill="#3a091d" fill-opacity="1"><g transform="translate(258.476466, 207.493244)"><g><path d="M 19.71875 0 C 24.046875 0 27.75 -1.578125 30.828125 -4.65625 C 33.90625 -7.734375 35.40625 -11.4375 35.40625 -15.84375 L 35.40625 -23.578125 C 35.40625 -27.984375 33.90625 -31.78125 30.828125 -34.84375 C 27.75 -37.921875 24.046875 -39.421875 19.71875 -39.421875 C 15.375 -39.421875 11.671875 -37.921875 8.59375 -34.84375 C 5.515625 -31.78125 3.9375 -27.984375 3.9375 -23.578125 L 3.9375 -15.84375 C 3.9375 -11.4375 5.515625 -7.734375 8.59375 -4.65625 C 11.671875 -1.578125 15.375 0 19.71875 0 Z M 7.890625 -15.84375 L 7.890625 -23.578125 C 7.890625 -24.59375 7.96875 -25.625 8.203125 -26.578125 C 8.75 -29.171875 10.171875 -31.296875 12.296875 -32.953125 C 14.421875 -34.609375 16.953125 -35.484375 19.71875 -35.484375 C 22.46875 -35.484375 24.828125 -34.609375 26.96875 -32.953125 C 29.015625 -31.296875 30.515625 -29.171875 31.140625 -26.578125 C 31.375 -25.625 31.453125 -24.59375 31.453125 -23.578125 L 31.453125 -15.84375 C 31.453125 -14.828125 31.375 -13.796875 31.140625 -12.84375 C 30.59375 -10.25 29.171875 -8.125 27.046875 -6.46875 C 24.921875 -4.8125 22.46875 -3.9375 19.71875 -3.9375 C 16.953125 -3.9375 14.421875 -4.8125 12.296875 -6.46875 C 10.171875 -8.125 8.75 -10.25 8.203125 -12.84375 C 7.96875 -13.796875 7.890625 -14.828125 7.890625 -15.84375 Z M 7.890625 -15.84375 "/></g></g></g><g fill="#3a091d" fill-opacity="1"><g transform="translate(297.81123, 207.493244)"><g><path d="M 19.71875 0 C 24.046875 0 27.75 -1.578125 30.828125 -4.65625 C 33.90625 -7.734375 35.40625 -11.4375 35.40625 -15.84375 L 35.40625 -23.578125 C 35.40625 -27.984375 33.90625 -31.78125 30.828125 -34.84375 C 27.75 -37.921875 24.046875 -39.421875 19.71875 -39.421875 C 15.375 -39.421875 11.671875 -37.921875 8.59375 -34.84375 C 5.515625 -31.78125 3.9375 -27.984375 3.9375 -23.578125 L 3.9375 -15.84375 C 3.9375 -11.4375 5.515625 -7.734375 8.59375 -4.65625 C 11.671875 -1.578125 15.375 0 19.71875 0 Z M 7.890625 -15.84375 L 7.890625 -23.578125 C 7.890625 -24.59375 7.96875 -25.625 8.203125 -26.578125 C 8.75 -29.171875 10.171875 -31.296875 12.296875 -32.953125 C 14.421875 -34.609375 16.953125 -35.484375 19.71875 -35.484375 C 22.46875 -35.484375 24.828125 -34.609375 26.96875 -32.953125 C 29.015625 -31.296875 30.515625 -29.171875 31.140625 -26.578125 C 31.375 -25.625 31.453125 -24.59375 31.453125 -23.578125 L 31.453125 -15.84375 C 31.453125 -14.828125 31.375 -13.796875 31.140625 -12.84375 C 30.59375 -10.25 29.171875 -8.125 27.046875 -6.46875 C 24.921875 -4.8125 22.46875 -3.9375 19.71875 -3.9375 C 16.953125 -3.9375 14.421875 -4.8125 12.296875 -6.46875 C 10.171875 -8.125 8.75 -10.25 8.203125 -12.84375 C 7.96875 -13.796875 7.890625 -14.828125 7.890625 -15.84375 Z M 7.890625 -15.84375 "/></g></g></g><g fill="#3a091d" fill-opacity="1"><g transform="translate(337.145995, 207.493244)"><g><path d="M 3.9375 -23.578125 L 3.9375 0 L 7.890625 0 L 7.890625 -23.578125 C 7.890625 -24.59375 7.96875 -25.625 8.203125 -26.578125 C 8.75 -29.171875 10.171875 -31.296875 12.296875 -32.953125 C 14.421875 -34.609375 16.953125 -35.484375 19.71875 -35.484375 C 22.46875 -35.484375 24.828125 -34.609375 26.96875 -32.953125 C 29.015625 -31.296875 30.515625 -29.171875 31.140625 -26.578125 C 31.375 -25.625 31.453125 -24.59375 31.453125 -23.578125 L 31.453125 0 L 35.40625 0 L 35.40625 -23.578125 C 35.40625 -27.984375 33.90625 -31.78125 30.828125 -34.84375 C 27.75 -37.921875 24.046875 -39.421875 19.71875 -39.421875 C 15.375 -39.421875 11.671875 -37.921875 8.59375 -34.84375 C 5.515625 -31.78125 3.9375 -27.984375 3.9375 -23.578125 Z M 3.9375 -23.578125 "/></g></g></g><path stroke-linecap="butt" transform="matrix(1.929971, 0, 0, 1.929971, 119.797629, 131.469791)" fill="none" stroke-linejoin="miter" d="M 10.352339 37.000096 C 12.596948 37.000096 14.521767 36.222882 16.116674 34.625951 C 16.64696 34.097688 17.094263 33.488466 17.464654 32.871148 C 17.833021 33.488466 18.282348 34.097688 18.81061 34.625951 C 20.405517 36.222882 22.320216 37.000096 24.564825 37.000096 C 26.819554 37.000096 28.734253 36.222882 30.32916 34.625951 C 31.924067 33.041163 32.743785 31.075865 32.743785 28.7928 L 32.743785 0.238292 L 30.697527 0.238292 L 30.697527 28.7928 C 30.697527 29.321062 30.659071 29.849325 30.529535 30.337107 C 30.250224 31.695207 29.511466 32.792212 28.404342 33.648362 C 27.307337 34.506535 26.001861 34.955862 24.564825 34.955862 C 23.137909 34.955862 21.911369 34.506535 20.814364 33.648362 C 19.747719 32.792212 18.970506 31.695207 18.640595 30.337107 C 18.521179 29.849325 18.480699 29.321062 18.480699 28.7928 L 18.480699 0.238292 L 16.436465 0.238292 L 16.436465 28.7928 C 16.436465 29.321062 16.395985 29.849325 16.27657 30.337107 C 15.948682 31.695207 15.169445 32.792212 14.11292 33.648362 C 13.005795 34.506535 11.779255 34.955862 10.352339 34.955862 C 8.927447 34.955862 7.619947 34.506535 6.512822 33.648362 C 5.405698 32.792212 4.679084 31.695207 4.389653 30.337107 C 4.270237 29.849325 4.229757 29.321062 4.229757 28.7928 L 4.229757 0.238292 L 2.185523 0.238292 L 2.185523 28.7928 C 2.185523 31.075865 3.003217 33.041163 4.588004 34.625951 C 6.184935 36.222882 8.109754 37.000096 10.352339 37.000096 Z M 36.820109 8.447612 L 36.820109 37.000096 L 38.864343 37.000096 L 38.864343 8.447612 C 38.864343 7.917325 38.904823 7.378943 39.024238 6.891161 C 39.31367 5.545204 40.042307 4.43808 41.149432 3.579906 C 42.256557 2.721733 43.562033 2.27443 44.988949 2.27443 C 46.413841 2.27443 47.642405 2.721733 48.747506 3.579906 C 49.806055 4.43808 50.583268 5.545204 50.913179 6.891161 C 51.032595 7.378943 51.073075 7.917325 51.073075 8.447612 L 51.073075 37.000096 L 53.117309 37.000096 L 53.117309 8.447612 C 53.117309 7.917325 53.155765 7.378943 53.277204 6.891161 C 53.605091 5.545204 54.382305 4.43808 55.450974 3.579906 C 56.547979 2.721733 57.774519 2.27443 59.199411 2.27443 C 60.636447 2.27443 61.943947 2.721733 63.040952 3.579906 C 64.146052 4.43808 64.88481 5.545204 65.164121 6.891161 C 65.293657 7.378943 65.334137 7.917325 65.334137 8.447612 L 65.334137 37.000096 L 67.378371 37.000096 L 67.378371 8.447612 C 67.378371 6.162523 66.560677 4.199248 64.96577 2.602317 C 63.368839 1.00741 61.45414 0.238292 59.199411 0.238292 C 56.956826 0.238292 55.042127 1.00741 53.445196 2.602317 C 52.916933 3.13058 52.467607 3.749922 52.09924 4.35712 C 51.730873 3.749922 51.281546 3.13058 50.753284 2.602317 C 49.158377 1.00741 47.233558 0.238292 44.988949 0.238292 C 42.744339 0.238292 40.819521 1.00741 39.224614 2.602317 C 37.637803 4.199248 36.820109 6.162523 36.820109 8.447612 Z M 36.820109 8.447612 " stroke="#3a091d" stroke-width="1.532186" stroke-opacity="1" stroke-miterlimit="4"/><g fill="#3a091d" fill-opacity="1"><g transform="translate(191.825004, 238.739223)"><g><path d="M 11.390625 -3.84375 L 3.359375 -3.84375 L 1.625 0 L 0.046875 0 L 6.625 -14.421875 L 8.140625 -14.421875 L 14.71875 0 L 13.125 0 Z M 10.828125 -5.09375 L 7.375 -12.828125 L 3.90625 -5.09375 Z M 10.828125 -5.09375 "/></g></g></g><g fill="#3a091d" fill-opacity="1"><g transform="translate(210.476406, 238.739223)"><g><path d="M 12.1875 0 L 8.890625 -4.640625 C 8.523438 -4.597656 8.144531 -4.578125 7.75 -4.578125 L 3.875 -4.578125 L 3.875 0 L 2.34375 0 L 2.34375 -14.421875 L 7.75 -14.421875 C 9.582031 -14.421875 11.019531 -13.976562 12.0625 -13.09375 C 13.113281 -12.21875 13.640625 -11.007812 13.640625 -9.46875 C 13.640625 -8.34375 13.351562 -7.390625 12.78125 -6.609375 C 12.207031 -5.835938 11.394531 -5.28125 10.34375 -4.9375 L 13.859375 0 Z M 7.703125 -5.875 C 9.128906 -5.875 10.21875 -6.1875 10.96875 -6.8125 C 11.726562 -7.445312 12.109375 -8.332031 12.109375 -9.46875 C 12.109375 -10.632812 11.726562 -11.53125 10.96875 -12.15625 C 10.21875 -12.78125 9.128906 -13.09375 7.703125 -13.09375 L 3.875 -13.09375 L 3.875 -5.875 Z M 7.703125 -5.875 "/></g></g></g><g fill="#3a091d" fill-opacity="1"><g transform="translate(229.251311, 238.739223)"><g><path d="M 5.140625 -13.09375 L 0.078125 -13.09375 L 0.078125 -14.421875 L 11.734375 -14.421875 L 11.734375 -13.09375 L 6.671875 -13.09375 L 6.671875 0 L 5.140625 0 Z M 5.140625 -13.09375 "/></g></g></g><g fill="#3a091d" fill-opacity="1"><g transform="translate(244.958823, 238.739223)"><g><path d="M 12.546875 -1.3125 L 12.546875 0 L 2.34375 0 L 2.34375 -14.421875 L 12.234375 -14.421875 L 12.234375 -13.09375 L 3.875 -13.09375 L 3.875 -7.96875 L 11.328125 -7.96875 L 11.328125 -6.671875 L 3.875 -6.671875 L 3.875 -1.3125 Z M 12.546875 -1.3125 "/></g></g></g><g fill="#3a091d" fill-opacity="1"><g transform="translate(262.62207, 238.739223)"><g><path d="M 6.328125 0.125 C 5.253906 0.125 4.222656 -0.046875 3.234375 -0.390625 C 2.253906 -0.734375 1.5 -1.1875 0.96875 -1.75 L 1.5625 -2.921875 C 2.082031 -2.398438 2.773438 -1.976562 3.640625 -1.65625 C 4.503906 -1.332031 5.398438 -1.171875 6.328125 -1.171875 C 7.617188 -1.171875 8.582031 -1.40625 9.21875 -1.875 C 9.863281 -2.351562 10.1875 -2.972656 10.1875 -3.734375 C 10.1875 -4.304688 10.007812 -4.765625 9.65625 -5.109375 C 9.3125 -5.453125 8.882812 -5.710938 8.375 -5.890625 C 7.875 -6.078125 7.171875 -6.28125 6.265625 -6.5 C 5.179688 -6.78125 4.316406 -7.046875 3.671875 -7.296875 C 3.023438 -7.554688 2.46875 -7.945312 2 -8.46875 C 1.539062 -8.988281 1.3125 -9.691406 1.3125 -10.578125 C 1.3125 -11.304688 1.503906 -11.96875 1.890625 -12.5625 C 2.273438 -13.164062 2.863281 -13.644531 3.65625 -14 C 4.457031 -14.363281 5.445312 -14.546875 6.625 -14.546875 C 7.445312 -14.546875 8.253906 -14.429688 9.046875 -14.203125 C 9.835938 -13.972656 10.519531 -13.660156 11.09375 -13.265625 L 10.578125 -12.046875 C 9.972656 -12.441406 9.328125 -12.738281 8.640625 -12.9375 C 7.960938 -13.132812 7.289062 -13.234375 6.625 -13.234375 C 5.363281 -13.234375 4.414062 -12.988281 3.78125 -12.5 C 3.144531 -12.019531 2.828125 -11.394531 2.828125 -10.625 C 2.828125 -10.050781 3 -9.585938 3.34375 -9.234375 C 3.695312 -8.890625 4.132812 -8.625 4.65625 -8.4375 C 5.1875 -8.25 5.898438 -8.046875 6.796875 -7.828125 C 7.847656 -7.566406 8.703125 -7.304688 9.359375 -7.046875 C 10.015625 -6.796875 10.566406 -6.410156 11.015625 -5.890625 C 11.472656 -5.378906 11.703125 -4.6875 11.703125 -3.8125 C 11.703125 -3.082031 11.503906 -2.414062 11.109375 -1.8125 C 10.710938 -1.21875 10.109375 -0.742188 9.296875 -0.390625 C 8.492188 -0.046875 7.503906 0.125 6.328125 0.125 Z M 6.328125 0.125 "/></g></g></g><g fill="#3a091d" fill-opacity="1"><g transform="translate(279.17363, 238.739223)"><g><path d="M 11.390625 -3.84375 L 3.359375 -3.84375 L 1.625 0 L 0.046875 0 L 6.625 -14.421875 L 8.140625 -14.421875 L 14.71875 0 L 13.125 0 Z M 10.828125 -5.09375 L 7.375 -12.828125 L 3.90625 -5.09375 Z M 10.828125 -5.09375 "/></g></g></g><g fill="#3a091d" fill-opacity="1"><g transform="translate(297.825028, 238.739223)"><g><path d="M 14.390625 -14.421875 L 14.390625 0 L 13.140625 0 L 3.875 -11.703125 L 3.875 0 L 2.34375 0 L 2.34375 -14.421875 L 3.609375 -14.421875 L 12.890625 -2.71875 L 12.890625 -14.421875 Z M 14.390625 -14.421875 "/></g></g></g><g fill="#3a091d" fill-opacity="1"><g transform="translate(318.452736, 238.739223)"><g><path d="M 2.34375 -14.421875 L 3.875 -14.421875 L 3.875 0 L 2.34375 0 Z M 4.578125 -18.140625 L 6.546875 -18.140625 L 3.203125 -15.59375 L 1.765625 -15.59375 Z M 4.578125 -18.140625 "/></g></g></g><g fill="#3a091d" fill-opacity="1"><g transform="translate(328.560702, 238.739223)"><g><path d="M 11.390625 -3.84375 L 3.359375 -3.84375 L 1.625 0 L 0.046875 0 L 6.625 -14.421875 L 8.140625 -14.421875 L 14.71875 0 L 13.125 0 Z M 10.828125 -5.09375 L 7.375 -12.828125 L 3.90625 -5.09375 Z M 10.828125 -5.09375 "/></g></g></g><g fill="#3a091d" fill-opacity="1"><g transform="translate(347.214892, 238.739223)"><g/></g></g><g fill="#3a091d" fill-opacity="1"><g transform="translate(-1.264959, 209.423233)"><g><path d="M 19.15625 0 C 28.390625 0 34.921875 -6.625 34.921875 -17.65625 C 34.921875 -19.953125 33.1875 -21.6875 30.90625 -21.6875 L 8.671875 -21.6875 C 8.203125 -21.6875 7.890625 -22 7.890625 -22.46875 C 7.890625 -30.515625 12.6875 -35.484375 19.71875 -35.484375 C 24.75 -35.484375 29.09375 -32.25 30.828125 -27.59375 L 34.921875 -27.59375 C 33.34375 -34.21875 27.28125 -39.421875 19.71875 -39.421875 C 10.09375 -39.421875 3.9375 -32.40625 3.9375 -21.765625 C 3.9375 -19.46875 5.671875 -17.734375 7.96875 -17.734375 L 30.203125 -17.734375 C 30.671875 -17.734375 30.984375 -17.421875 30.984375 -16.953125 C 30.984375 -9.140625 26.484375 -3.9375 19.15625 -3.9375 C 14.109375 -3.9375 9.78125 -7.171875 8.046875 -11.828125 L 3.9375 -11.828125 C 5.515625 -5.203125 11.59375 0 19.15625 0 Z M 19.15625 0 "/></g></g></g><g fill="#3a091d" fill-opacity="1"><g transform="translate(37.596855, 209.423233)"><g><path d="M 3.9375 -23.578125 L 3.9375 0 L 7.890625 0 L 7.890625 -23.578125 C 7.890625 -24.59375 7.96875 -25.625 8.203125 -26.578125 C 8.75 -29.171875 10.171875 -31.296875 12.296875 -32.953125 C 14.421875 -34.609375 16.953125 -35.484375 19.71875 -35.484375 C 22.46875 -35.484375 24.828125 -34.609375 26.96875 -32.953125 C 29.015625 -31.296875 30.515625 -29.171875 31.140625 -26.578125 C 31.375 -25.625 31.453125 -24.59375 31.453125 -23.578125 L 31.453125 0 L 35.40625 0 L 35.40625 -23.578125 C 35.40625 -27.984375 33.90625 -31.78125 30.828125 -34.84375 C 27.75 -37.921875 24.046875 -39.421875 19.71875 -39.421875 C 15.375 -39.421875 11.671875 -37.921875 8.59375 -34.84375 C 5.515625 -31.78125 3.9375 -27.984375 3.9375 -23.578125 Z M 3.9375 -23.578125 "/></g></g></g><g fill="#3a091d" fill-opacity="1"><g transform="translate(76.931619, 209.423233)"><g><path d="M 19.71875 0 C 24.046875 0 27.75 -1.578125 30.828125 -4.65625 C 33.90625 -7.734375 35.40625 -11.4375 35.40625 -15.84375 L 35.40625 -23.578125 C 35.40625 -27.984375 33.90625 -31.78125 30.828125 -34.84375 C 27.75 -37.921875 24.046875 -39.421875 19.71875 -39.421875 C 15.375 -39.421875 11.671875 -37.921875 8.59375 -34.84375 C 5.515625 -31.78125 3.9375 -27.984375 3.9375 -23.578125 L 3.9375 -15.84375 C 3.9375 -11.4375 5.515625 -7.734375 8.59375 -4.65625 C 11.671875 -1.578125 15.375 0 19.71875 0 Z M 7.890625 -15.84375 L 7.890625 -23.578125 C 7.890625 -24.59375 7.96875 -25.625 8.203125 -26.578125 C 8.75 -29.171875 10.171875 -31.296875 12.296875 -32.953125 C 14.421875 -34.609375 16.953125 -35.484375 19.71875 -35.484375 C 22.46875 -35.484375 24.828125 -34.609375 26.96875 -32.953125 C 29.015625 -31.296875 30.515625 -29.171875 31.140625 -26.578125 C 31.375 -25.625 31.453125 -24.59375 31.453125 -23.578125 L 31.453125 -15.84375 C 31.453125 -14.828125 31.375 -13.796875 31.140625 -12.84375 C 30.59375 -10.25 29.171875 -8.125 27.046875 -6.46875 C 24.921875 -4.8125 22.46875 -3.9375 19.71875 -3.9375 C 16.953125 -3.9375 14.421875 -4.8125 12.296875 -6.46875 C 10.171875 -8.125 8.75 -10.25 8.203125 -12.84375 C 7.96875 -13.796875 7.890625 -14.828125 7.890625 -15.84375 Z M 7.890625 -15.84375 "/></g></g></g></svg>